<svg xmlns="http://www.w3.org/2000/svg" width="221" height="120" viewBox="0 0 221 120">
    <path data-name="사각형 25310" style="fill:none" d="M0 0h221v120H0z"/>
    <g data-name="그룹 40986">
        <g data-name="그룹 40984">
            <g data-name="그룹 40983">
                <g data-name="그룹 40982">
                    <g data-name="그룹 40981">
                        <g data-name="그룹 40980">
                            <g data-name="그룹 40978">
                                <path data-name="패스 61284" d="M178.7 69.515a12.713 12.713 0 0 0-18.082 3.795 12.723 12.723 0 0 1-23-3.5l-.035-.132c-.012-.047-.029-.106-.043-.163a16.291 16.291 0 0 1-.651-5.053c0-11.4 11.7-24.1 28.545-24.1 17.253 0 27.125 13.135 29.667 20.434-.045-.128-.085-.256-.129-.388a36.333 36.333 0 0 0-70.7 11.785c0 17.934 12.936 33.286 30.877 33.286 14.31 0 23.926-8.023 28.338-19.08a14 14 0 0 0-4.787-16.884z" transform="translate(-49.573 -30.373)" style="fill:#002b51"/>
                            </g>
                            <g data-name="그룹 40979">
                                <path data-name="패스 61285" d="M200.455 63.339c-2.121-7.12-12.066-21.142-29.893-21.142-16.848 0-28.545 12.695-28.545 24.1a16.292 16.292 0 0 0 .651 5.053 10.6 10.6 0 0 1-.335-2.592c0-11.873 11.889-20.1 24.11-20.1A29.954 29.954 0 0 1 196.4 78.605a33.018 33.018 0 0 1-18.306 29.585v.008a36.339 36.339 0 0 0 23.958-34.17 35.909 35.909 0 0 0-1.597-10.689z" transform="translate(-54.707 -32.202)" style="fill:#da0021"/>
                            </g>
                        </g>
                    </g>
                </g>
            </g>
        </g>
        <g data-name="그룹 40985">
            <path data-name="패스 61286" d="M56.174 175.189v2.288H42.7v-2.288h4.235v-6.772H49.5v6.772zm-3.84-2.4v-10.473h-8.866v-2.265h11.4v12.735zm8 6.749h-2.578v-20.62h2.583v8.691h2.653v2.427h-2.653z" transform="translate(-25.982 -65.959)" style="fill:#454444"/>
            <path data-name="패스 61287" d="M84.307 160.043v2.219h-12.1v-2.219h4.747v-1.71h2.723v1.71zm-11.24 12.3H89.4v6.841h-2.56V174.6H73.068zm10.053-5.292a3.94 3.94 0 0 1-.384 1.71 4.733 4.733 0 0 1-1.012 1.409 5.725 5.725 0 0 1-1.536.937 4.8 4.8 0 0 1-1.862.358 4.88 4.88 0 0 1-1.873-.358 5.3 5.3 0 0 1-1.525-.937 4.541 4.541 0 0 1-1.036-1.409 3.94 3.94 0 0 1-.384-1.71 3.866 3.866 0 0 1 .384-1.7 4.615 4.615 0 0 1 1.036-1.4 5.328 5.328 0 0 1 1.525-.935 4.88 4.88 0 0 1 1.873-.358 4.8 4.8 0 0 1 1.862.358 5.757 5.757 0 0 1 1.536.935 4.814 4.814 0 0 1 1.012 1.4 3.866 3.866 0 0 1 .384 1.695zm-2.466-.023a2.116 2.116 0 0 0-.687-1.584 2.287 2.287 0 0 0-1.64-.659 2.247 2.247 0 0 0-1.629.659 2.133 2.133 0 0 0-.675 1.584 2.169 2.169 0 0 0 .675 1.594 2.224 2.224 0 0 0 1.629.67 2.263 2.263 0 0 0 1.64-.67 2.151 2.151 0 0 0 .687-1.598zm8.75 4.16h-2.56v-12.439H89.4v4.831h2.978v2.52H89.4z" transform="translate(-34.516 -65.79)" style="fill:#454444"/>
            <path data-name="패스 61288" d="M112.681 176.83H110.1V162.5h-7.96v-2.31h10.541zm5.189-17.912h2.583v20.617h-2.583z" transform="translate(-43.173 -65.959)" style="fill:#454444"/>
            <path data-name="패스 61289" d="M140.113 170.453v-1.595h-8.238v-2.1h19.082v2.1H142.7v1.595h6.725v5.224h-13.478v1.248H149.7v2.1h-16.29v-5.361h13.45v-1.179h-13.45v-2.034zm1.3-9.268-7.26 5.108-1.536-1.779 8.8-6.149 8.8 6.149-1.536 1.779z" transform="translate(-51.773 -65.799)" style="fill:#454444"/>
            <path data-name="패스 61290" d="M161.34 161.715v-2.2h11.914v2.2h-5.073l5.283 6.4-1.792 1.479-4.282-5.292-4.212 5.639-1.862-1.479 5.283-6.749zm16.5 13.428a4.519 4.519 0 0 1-.431 1.953 5.339 5.339 0 0 1-2.862 2.7 5.654 5.654 0 0 1-4.2 0 5.3 5.3 0 0 1-2.874-2.7 4.642 4.642 0 0 1 0-3.906 5.4 5.4 0 0 1 1.151-1.607 5.346 5.346 0 0 1 1.722-1.1 5.654 5.654 0 0 1 4.2 0 5.332 5.332 0 0 1 2.862 2.7 4.518 4.518 0 0 1 .431 1.96zm-2.537-.023a2.686 2.686 0 0 0-.849-1.988 2.807 2.807 0 0 0-2.036-.832 2.742 2.742 0 0 0-2 .832 2.79 2.79 0 0 0 0 3.987 2.76 2.76 0 0 0 2 .821 2.826 2.826 0 0 0 2.036-.821 2.671 2.671 0 0 0 .846-1.999zm1.722-5.27v-4.46h-3.863v-2.219h3.863v-4.253h2.583v10.933z" transform="translate(-60.288 -65.959)" style="fill:#454444"/>
            <path data-name="패스 61291" d="M206.006 163.32v-3.166h2.56v11.787h-6.725v4.159h8.259v2.265h-19.08V176.1h8.238v-4.161h-6.7v-11.785h2.536v3.166zm0 6.38v-4.161h-10.914v4.161z" transform="translate(-68.879 -66.317)" style="fill:#454444"/>
            <path data-name="패스 61292" d="M222.128 167.578v-8.367h15.987v2.08h-13.426v1.086h13.334v2.011h-13.334v1.156h13.5v2.034h-6.772v1.322h8.261v2.1h-19.085v-2.1h8.237v-1.318zm13.078 8.413a4.067 4.067 0 0 1-.384 1.745 4.623 4.623 0 0 1-1.059 1.445 5.786 5.786 0 0 1-1.641.994 5.5 5.5 0 0 1-3.968 0 5.419 5.419 0 0 1-1.629-.994 4.449 4.449 0 0 1-1.082-1.445 4.176 4.176 0 0 1 0-3.5 4.756 4.756 0 0 1 1.082-1.456 5.238 5.238 0 0 1 1.629-.982 5.672 5.672 0 0 1 3.968 0 5.581 5.581 0 0 1 1.641.982 4.957 4.957 0 0 1 1.059 1.456 4.041 4.041 0 0 1 .385 1.754zm-2.56-.023a2.316 2.316 0 0 0-.744-1.733 2.465 2.465 0 0 0-1.768-.717 2.5 2.5 0 0 0-1.781.717 2.3 2.3 0 0 0-.756 1.733 2.337 2.337 0 0 0 .756 1.745 2.482 2.482 0 0 0 1.781.729 2.444 2.444 0 0 0 1.768-.729 2.354 2.354 0 0 0 .744-1.745z" transform="translate(-77.432 -66.044)" style="fill:#454444"/>
            <path data-name="패스 61293" d="m256.269 158.756 6.539 10.516-2.095 1.294-4.445-7.4-4.421 7.558-2.141-1.3zm-4.863 20.316v-6.888h2.56v4.622h14.451v2.266zm14.241-7v-13.2h2.583v13.2z" transform="translate(-85.852 -65.912)" style="fill:#454444"/>
            <path data-name="패스 61294" d="M279.738 172.095h19.081v2.265h-8.261v5.317h-2.583v-5.317h-8.237zm4.072-10.077h10.914v-2.611h2.56v9.915h-16.01v-9.915h2.537zm10.914 2.219H283.81v2.843h10.914z" transform="translate(-94.537 -66.1)" style="fill:#454444"/>
        </g>
    </g>
</svg>
