<svg width="25" height="24" viewBox="0 0 25 24" fill="none" xmlns="http://www.w3.org/2000/svg">
<path d="M15.1358 3.90949C15.7888 3.47412 16.1153 3.25643 16.4711 3.29166C16.8269 3.32689 17.1044 3.60439 17.6594 4.15938L20.3406 6.84062C20.8956 7.39561 21.1731 7.67311 21.2083 8.02888C21.2436 8.38465 21.0259 8.71118 20.5905 9.36424L18.9419 11.8372C18.38 12.68 18.0991 13.1013 17.8749 13.5511C17.7086 13.8845 17.5659 14.2292 17.4476 14.5825C17.2882 15.0591 17.1889 15.5557 16.9902 16.5489L16.7992 17.5038C16.7986 17.5072 16.7982 17.5089 16.798 17.5101C16.6556 18.213 15.8414 18.5419 15.2508 18.1351C15.2497 18.1344 15.2483 18.1334 15.2455 18.1315C15.2322 18.1223 15.2255 18.1177 15.2189 18.1131C11.7692 15.7225 8.77754 12.7308 6.38691 9.28108C6.38233 9.27448 6.37772 9.26782 6.36851 9.25451C6.36655 9.25169 6.36558 9.25028 6.36486 9.24924C5.95815 8.65858 6.28704 7.84444 6.9899 7.70202C6.99113 7.70177 6.99282 7.70144 6.99618 7.70076L7.95114 7.50977C8.94433 7.31113 9.44092 7.21182 9.9175 7.05236C10.2708 6.93415 10.6155 6.79139 10.9489 6.62514C11.3987 6.40089 11.82 6.11998 12.6628 5.55815L15.1358 3.90949Z" fill="#36618E" stroke="#36618E" stroke-width="2"/>
<path d="M5.5 19L10 14.5" stroke="#36618E" stroke-width="2" stroke-linecap="round"/>
</svg>
