<svg width="25" height="24" viewBox="0 0 25 24" fill="none" xmlns="http://www.w3.org/2000/svg">
<path d="M3.5 6C3.5 5.05719 3.5 4.58579 3.79289 4.29289C4.08579 4 4.55719 4 5.5 4H19.5C20.4428 4 20.9142 4 21.2071 4.29289C21.5 4.58579 21.5 5.05719 21.5 6V9H3.5V6Z" stroke="#33363F" stroke-width="2" stroke-linecap="round"/>
<path d="M3.5 9H9.5V20H5.5C4.55719 20 4.08579 20 3.79289 19.7071C3.5 19.4142 3.5 18.9428 3.5 18V9Z" stroke="#33363F" stroke-width="2" stroke-linecap="round"/>
<rect x="9.5" y="9" width="6" height="11" stroke="#33363F" stroke-width="2" stroke-linecap="round"/>
<path d="M15.5 9H21.5V18C21.5 18.9428 21.5 19.4142 21.2071 19.7071C20.9142 20 20.4428 20 19.5 20H15.5V9Z" stroke="#33363F" stroke-width="2" stroke-linecap="round"/>
</svg>
